<?xml version="1.0" encoding="UTF-8" standalone="no"?>
<!DOCTYPE svg PUBLIC "-//W3C//DTD SVG 1.1//EN" "http://www.w3.org/Graphics/SVG/1.1/DTD/svg11.dtd">
<svg width="100%" height="100%" viewBox="0 0 600 200" version="1.1" xmlns="http://www.w3.org/2000/svg" xmlns:xlink="http://www.w3.org/1999/xlink" xml:space="preserve" xmlns:serif="http://www.serif.com/" style="fill-rule:evenodd;clip-rule:evenodd;stroke-linejoin:round;stroke-miterlimit:2;">
    <g transform="matrix(37.9508,0,0,37.9862,-2966.07,-7845.81)">
        <g transform="matrix(4.60693,0,0,4.60693,83.1676,210.203)">
            <path d="M0.464,0.121C0.449,0.121 0.432,0.112 0.413,0.094C0.393,0.075 0.372,0.051 0.351,0.022C0.33,-0.008 0.309,-0.041 0.288,-0.076C0.267,-0.111 0.247,-0.147 0.23,-0.182C0.212,-0.217 0.197,-0.249 0.185,-0.277C0.166,-0.212 0.148,-0.148 0.131,-0.085C0.114,-0.022 0.097,0.036 0.082,0.087C0.065,0.087 0.05,0.082 0.037,0.073C0.023,0.064 0.016,0.052 0.016,0.037C0.016,0.03 0.018,0.021 0.021,0.011C0.024,0 0.027,-0.009 0.03,-0.018C0.047,-0.071 0.063,-0.12 0.079,-0.167C0.095,-0.214 0.111,-0.259 0.126,-0.302C0.141,-0.345 0.157,-0.388 0.174,-0.431C0.19,-0.474 0.207,-0.517 0.225,-0.56C0.243,-0.603 0.262,-0.648 0.283,-0.695C0.255,-0.69 0.231,-0.684 0.21,-0.675C0.189,-0.666 0.173,-0.657 0.16,-0.65C0.147,-0.642 0.139,-0.638 0.134,-0.638C0.131,-0.638 0.128,-0.64 0.123,-0.643C0.118,-0.646 0.113,-0.649 0.109,-0.654C0.105,-0.658 0.103,-0.662 0.103,-0.665C0.12,-0.672 0.141,-0.68 0.164,-0.689C0.187,-0.698 0.213,-0.705 0.241,-0.711C0.269,-0.717 0.298,-0.72 0.328,-0.72C0.357,-0.72 0.386,-0.716 0.416,-0.71C0.445,-0.703 0.472,-0.692 0.498,-0.677C0.523,-0.662 0.543,-0.642 0.558,-0.619C0.573,-0.595 0.581,-0.566 0.581,-0.533C0.581,-0.5 0.574,-0.472 0.559,-0.449C0.544,-0.425 0.524,-0.405 0.5,-0.389C0.475,-0.373 0.449,-0.36 0.42,-0.351C0.391,-0.341 0.363,-0.334 0.335,-0.329C0.307,-0.324 0.282,-0.32 0.259,-0.319C0.236,-0.317 0.219,-0.316 0.208,-0.316C0.229,-0.281 0.248,-0.246 0.267,-0.213C0.286,-0.18 0.306,-0.147 0.328,-0.114C0.35,-0.081 0.376,-0.047 0.406,-0.014C0.436,0.019 0.472,0.053 0.515,0.088C0.511,0.097 0.504,0.104 0.494,0.111C0.483,0.118 0.473,0.121 0.464,0.121ZM0.201,-0.332C0.237,-0.334 0.274,-0.34 0.311,-0.35C0.347,-0.359 0.381,-0.373 0.412,-0.391C0.443,-0.408 0.467,-0.431 0.486,-0.458C0.505,-0.485 0.514,-0.517 0.514,-0.554C0.514,-0.591 0.505,-0.619 0.488,-0.641C0.471,-0.662 0.448,-0.677 0.421,-0.686C0.394,-0.695 0.365,-0.699 0.335,-0.699C0.312,-0.653 0.29,-0.598 0.267,-0.534C0.244,-0.469 0.222,-0.402 0.201,-0.332Z" style="fill-rule:nonzero;"/>
        </g>
        <g transform="matrix(4.60693,0,0,4.60693,85.6876,210.203)">
            <path d="M0.108,0.044C0.067,0.044 0.037,0.033 0.017,0.011C-0.004,-0.012 -0.014,-0.039 -0.014,-0.072C-0.014,-0.102 -0.007,-0.134 0.009,-0.167C0.024,-0.2 0.044,-0.232 0.069,-0.261C0.093,-0.29 0.121,-0.314 0.151,-0.333C0.181,-0.351 0.211,-0.36 0.24,-0.36C0.255,-0.36 0.27,-0.356 0.283,-0.348C0.296,-0.34 0.302,-0.324 0.302,-0.299C0.302,-0.274 0.295,-0.25 0.28,-0.228C0.265,-0.205 0.245,-0.185 0.221,-0.168C0.196,-0.151 0.169,-0.137 0.141,-0.126C0.112,-0.115 0.083,-0.108 0.054,-0.105C0.053,-0.098 0.052,-0.092 0.051,-0.086C0.05,-0.08 0.05,-0.074 0.05,-0.069C0.05,-0.059 0.051,-0.049 0.054,-0.039C0.056,-0.029 0.06,-0.02 0.066,-0.012C0.072,-0.003 0.08,0.003 0.091,0.008C0.101,0.013 0.114,0.015 0.129,0.015C0.158,0.015 0.186,0.007 0.214,-0.01C0.242,-0.026 0.268,-0.047 0.292,-0.074C0.316,-0.101 0.336,-0.13 0.353,-0.162L0.365,-0.153C0.347,-0.113 0.324,-0.078 0.297,-0.049C0.269,-0.02 0.239,0.003 0.207,0.02C0.174,0.036 0.141,0.044 0.108,0.044ZM0.059,-0.124C0.077,-0.13 0.097,-0.139 0.12,-0.151C0.143,-0.162 0.165,-0.176 0.186,-0.192C0.206,-0.208 0.224,-0.226 0.238,-0.245C0.251,-0.264 0.258,-0.285 0.258,-0.306C0.258,-0.313 0.257,-0.319 0.254,-0.323C0.251,-0.327 0.246,-0.329 0.237,-0.329C0.221,-0.329 0.204,-0.323 0.186,-0.311C0.168,-0.298 0.151,-0.282 0.134,-0.262C0.117,-0.242 0.102,-0.22 0.089,-0.196C0.076,-0.172 0.066,-0.148 0.059,-0.124Z" style="fill-rule:nonzero;"/>
        </g>
        <g transform="matrix(4.60693,0,0,4.60693,87.2217,210.203)">
            <path d="M-0.063,0.28C-0.068,0.28 -0.074,0.277 -0.079,0.272C-0.084,0.266 -0.087,0.26 -0.09,0.254C-0.093,0.247 -0.094,0.243 -0.094,0.242C-0.085,0.209 -0.076,0.18 -0.067,0.155C-0.057,0.129 -0.048,0.102 -0.04,0.076C-0.031,0.049 -0.022,0.017 -0.013,-0.02C-0.004,-0.056 0.005,-0.101 0.014,-0.155C0.023,-0.209 0.033,-0.276 0.042,-0.356C0.043,-0.362 0.044,-0.366 0.046,-0.369C0.048,-0.372 0.053,-0.373 0.061,-0.373C0.078,-0.373 0.091,-0.368 0.098,-0.359C0.105,-0.349 0.109,-0.338 0.109,-0.327C0.109,-0.318 0.107,-0.301 0.103,-0.277C0.099,-0.253 0.093,-0.225 0.086,-0.192C0.097,-0.214 0.112,-0.236 0.129,-0.259C0.146,-0.282 0.165,-0.301 0.187,-0.316C0.209,-0.331 0.233,-0.339 0.259,-0.339C0.288,-0.339 0.313,-0.329 0.332,-0.308C0.35,-0.287 0.36,-0.259 0.36,-0.225C0.36,-0.199 0.354,-0.171 0.343,-0.143C0.331,-0.114 0.315,-0.086 0.294,-0.061C0.273,-0.035 0.248,-0.014 0.219,0.002C0.19,0.018 0.159,0.026 0.124,0.026C0.107,0.026 0.093,0.024 0.082,0.02C0.071,0.016 0.066,0.012 0.066,0.008C0.066,0.005 0.069,0.004 0.074,0.004C0.079,0.003 0.084,0.003 0.091,0.003C0.118,0.003 0.143,-0.004 0.168,-0.017C0.192,-0.03 0.214,-0.047 0.233,-0.068C0.252,-0.089 0.268,-0.113 0.279,-0.139C0.29,-0.165 0.295,-0.191 0.295,-0.216C0.295,-0.237 0.291,-0.256 0.282,-0.271C0.273,-0.286 0.258,-0.293 0.238,-0.293C0.221,-0.293 0.204,-0.288 0.187,-0.277C0.169,-0.266 0.154,-0.252 0.139,-0.235C0.124,-0.218 0.11,-0.2 0.099,-0.182C0.087,-0.163 0.078,-0.147 0.072,-0.132C0.06,-0.082 0.048,-0.034 0.036,0.013C0.024,0.059 0.013,0.101 0.002,0.139C-0.01,0.176 -0.02,0.207 -0.029,0.231C-0.038,0.255 -0.045,0.27 -0.051,0.275C-0.054,0.278 -0.058,0.28 -0.063,0.28Z" style="fill-rule:nonzero;"/>
        </g>
    </g>
</svg>
